<svg width="80" height="32" viewBox="0 0 80 32" fill="none" xmlns="http://www.w3.org/2000/svg">
<path d="M8.9 23.5C7.35 23.5 5.98333 23.1167 4.8 22.35C3.63333 21.5833 2.73333 20.5333 2.1 19.2C1.46667 17.8667 1.15 16.3833 1.15 14.75C1.15 13.1167 1.46667 11.6333 2.1 10.3C2.73333 8.96667 3.63333 7.91667 4.8 7.15C5.98333 6.38333 7.35 6 8.9 6C10.45 6 11.8083 6.38333 12.975 7.15C14.1583 7.91667 15.0667 8.96667 15.7 10.3C16.3333 11.6333 16.65 13.1167 16.65 14.75C16.65 16.3833 16.3333 17.8667 15.7 19.2C15.0667 20.5333 14.1583 21.5833 12.975 22.35C11.8083 23.1167 10.45 23.5 8.9 23.5ZM8.9 22.5C9.98333 22.5 10.9167 22.1833 11.7 21.55C12.5 20.9167 13.1083 20.025 13.525 18.875C13.9417 17.7083 14.15 16.3333 14.15 14.75C14.15 13.1667 13.9417 11.8 13.525 10.65C13.1083 9.48333 12.5 8.58333 11.7 7.95C10.9167 7.31667 9.98333 7 8.9 7C7.81667 7 6.875 7.31667 6.075 7.95C5.29167 8.58333 4.69167 9.48333 4.275 10.65C3.85833 11.8 3.65 13.1667 3.65 14.75C3.65 16.3333 3.85833 17.7083 4.275 18.875C4.69167 20.025 5.29167 20.9167 6.075 21.55C6.875 22.1833 7.81667 22.5 8.9 22.5ZM28.4729 23.25C27.0562 23.25 25.8479 22.5833 24.8479 21.25L21.8479 17.25V23H19.5979V9.5C19.5979 8.65 19.4812 8.025 19.2479 7.625C19.0145 7.20833 18.5479 7 17.8479 7H17.3479V6.5H19.5979C20.2145 6.5 20.6729 6.58333 20.9729 6.75C21.2895 6.9 21.5145 7.18333 21.6479 7.6C21.7812 8.01667 21.8479 8.65 21.8479 9.5V16.875L24.9729 12.875C25.4062 12.3417 25.8645 11.9417 26.3479 11.675C26.8312 11.3917 27.4562 11.25 28.2229 11.25H28.9729V11.875C28.5229 11.875 28.0895 11.9667 27.6729 12.15C27.2562 12.3333 26.8979 12.6167 26.5979 13L23.8479 16.5L26.9729 20.5C27.4562 21.1333 27.9062 21.6083 28.3229 21.925C28.7562 22.2417 29.2229 22.4417 29.7229 22.525V23C29.3562 23.1667 28.9395 23.25 28.4729 23.25ZM35.6566 23.25C33.74 23.25 32.4483 22.9167 31.7816 22.25C31.4983 21.9667 31.3233 21.65 31.2566 21.3C31.19 20.9333 31.1566 20.375 31.1566 19.625H31.6566C31.8066 20.4583 32.165 21.1083 32.7316 21.575C33.315 22.025 34.1233 22.25 35.1566 22.25C36.0733 22.25 36.7566 22.0917 37.2066 21.775C37.6733 21.4583 37.9066 21.0333 37.9066 20.5C37.9066 20.0167 37.7233 19.6 37.3566 19.25C37.0066 18.9 36.44 18.5667 35.6566 18.25L34.1566 17.625C33.1566 17.225 32.4066 16.7583 31.9066 16.225C31.4066 15.6917 31.1566 15.0333 31.1566 14.25C31.1566 13.2333 31.54 12.4417 32.3066 11.875C33.0733 11.2917 34.065 11 35.2816 11C37.115 11 38.365 11.3333 39.0316 12C39.315 12.2833 39.49 12.6 39.5566 12.95C39.6233 13.3 39.6566 13.8583 39.6566 14.625H39.1566C39.0233 13.7917 38.6733 13.15 38.1066 12.7C37.54 12.2333 36.765 12 35.7816 12C34.9983 12 34.3816 12.1667 33.9316 12.5C33.4983 12.8167 33.2816 13.2333 33.2816 13.75C33.2816 14.6167 33.9483 15.325 35.2816 15.875L36.7816 16.5C37.915 16.9667 38.74 17.4667 39.2566 18C39.7733 18.5167 40.0316 19.1833 40.0316 20C40.0316 21.0167 39.6233 21.8167 38.8066 22.4C37.99 22.9667 36.94 23.25 35.6566 23.25ZM41.4275 9.425C41.0942 8.45833 40.7359 7.8 40.3525 7.45C39.9859 7.08333 39.4275 6.86667 38.6775 6.8V6.3C38.7609 6.3 38.8859 6.29167 39.0525 6.275C39.2025 6.25833 39.3609 6.25 39.5275 6.25C40.4442 6.25 41.2692 6.45833 42.0025 6.875C42.7525 7.29167 43.3525 8.14167 43.8025 9.425L47.1525 19.075L49.8275 11.15L49.2275 9.425C48.8942 8.45833 48.5359 7.8 48.1525 7.45C47.7859 7.08333 47.2275 6.86667 46.4775 6.8V6.3C46.5609 6.3 46.6775 6.29167 46.8275 6.275C46.9942 6.25833 47.1609 6.25 47.3275 6.25C48.2442 6.25 49.0692 6.45833 49.8025 6.875C50.5525 7.29167 51.1525 8.14167 51.6025 9.425L54.9525 19.075L59.2275 6.5H60.3025L54.5775 23.25H54.0775L50.3775 12.725L46.7775 23.25H46.2775L41.4275 9.425ZM63.7828 9.5C63.7828 8.65 63.6661 8.025 63.4328 7.625C63.1995 7.20833 62.7328 7 62.0328 7H61.5328V6.5H68.0828C71.3161 6.5 73.7578 7.21667 75.4078 8.65C77.0745 10.0833 77.9078 12.0833 77.9078 14.65C77.9078 16.3 77.5578 17.7583 76.8578 19.025C76.1578 20.275 75.1161 21.25 73.7328 21.95C72.3661 22.65 70.6995 23 68.7328 23H63.7828V9.5ZM68.6578 22.125C69.8911 22.125 70.9995 21.825 71.9828 21.225C72.9828 20.6083 73.7661 19.75 74.3328 18.65C74.8995 17.5333 75.1828 16.2333 75.1828 14.75C75.1828 13.3 74.8995 12.0167 74.3328 10.9C73.7828 9.78333 73.0078 8.91667 72.0078 8.3C71.0078 7.68333 69.8745 7.375 68.6078 7.375C67.8078 7.375 66.9745 7.50833 66.1078 7.775V21.8C67.0411 22.0167 67.8911 22.125 68.6578 22.125Z" fill="#06858E"/>
<path d="M68.665 12.85L70.24 9.21L70.45 9.21L72.025 12.85L71.605 12.85L70.345 9.931L69.085 12.85L68.665 12.85ZM68 13.4881L72.62 15.7351L72.62 16.2461L68 13.9991L68 13.4881ZM68.665 16.8862L69.085 16.8862L70.345 19.8052L71.605 16.8862L72.025 16.8862L70.45 20.5262L70.24 20.5262L68.665 16.8862Z" fill="#06858E"/>
<path d="M18.5 24.7C18.7333 25.5333 19.0583 26.0917 19.475 26.375C19.875 26.675 20.4667 26.825 21.25 26.825L25.5 26.825C26.4833 26.825 27.25 27.0333 27.8 27.45C28.35 27.8833 28.75 28.55 29 29.45C29.25 28.55 29.65 27.8833 30.2 27.45C30.75 27.0333 31.5167 26.825 32.5 26.825L36.75 26.825C37.5333 26.825 38.125 26.675 38.525 26.375C38.925 26.0917 39.25 25.5333 39.5 24.7L40.25 24.7C39.8667 26.1667 39.3083 27.2167 38.575 27.85C37.8417 28.5 36.9 28.825 35.75 28.825L32.25 28.825C31.4833 28.825 30.8417 29.0167 30.325 29.4C29.825 29.8 29.5083 30.4417 29.375 31.325L28.625 31.325C28.4917 30.4417 28.1667 29.8 27.65 29.4C27.15 29.0167 26.5167 28.825 25.75 28.825L22.25 28.825C21.0833 28.825 20.1333 28.5 19.4 27.85C18.65 27.2167 18.1 26.1667 17.75 24.7L18.5 24.7Z" fill="#06858E"/>
</svg>
