<svg width="28" height="28" viewBox="0 0 28 28" fill="none" xmlns="http://www.w3.org/2000/svg">
<path d="M23.5417 11.2881V10.4425L22.8007 10.85L13.527 15.9507C13.497 15.9671 13.4637 15.9767 13.4295 15.9786C13.3984 15.9804 13.3674 15.9758 13.3382 15.9652L13.2931 15.9439L4.03271 10.8495L3.29171 10.4418V11.2875V20.2709C3.29171 20.8289 3.5134 21.3641 3.908 21.7587C4.30261 22.1534 4.83781 22.375 5.39587 22.375H21.4375C21.9956 22.375 22.5308 22.1533 22.9254 21.7587C23.32 21.3641 23.5417 20.8289 23.5417 20.2709V11.2881ZM21.4375 6.33337C22.8531 6.33337 24 7.48035 24 8.89587V20.2709C24 21.6864 22.8531 22.8334 21.4375 22.8334H5.39587C4.71626 22.8334 4.06448 22.5634 3.58391 22.0828C3.10335 21.6023 2.83337 20.9505 2.83337 20.2709V8.89587C2.83337 7.48035 3.98035 6.33337 5.39587 6.33337H21.4375Z" stroke="#06858E"/>
</svg>
