<svg width="28" height="28" viewBox="0 0 28 28" fill="none" xmlns="http://www.w3.org/2000/svg">
<path d="M23.5416 11.288V10.4424L22.8007 10.8499L13.5269 15.9505C13.5269 15.9505 13.5269 15.9506 13.5269 15.9506C13.4969 15.967 13.4636 15.9766 13.4295 15.9785C13.3984 15.9803 13.3673 15.9757 13.3381 15.9651L13.293 15.9437L4.03265 10.8493L3.29165 10.4417V11.2874V20.2708C3.29165 20.8288 3.51333 21.364 3.90794 21.7586C4.30255 22.1532 4.83775 22.3749 5.39581 22.3749H21.4375C21.9955 22.3749 22.5307 22.1532 22.9254 21.7586C23.32 21.364 23.5416 20.8288 23.5416 20.2708V11.288ZM21.4375 6.33325C22.853 6.33325 24 7.48023 24 8.89575V20.2708C24 21.6863 22.853 22.8333 21.4375 22.8333H5.39581C4.7162 22.8333 4.06441 22.5633 3.58385 22.0827C3.10329 21.6022 2.83331 20.9504 2.83331 20.2708V8.89575C2.83331 7.48023 3.98029 6.33325 5.39581 6.33325H21.4375Z" stroke="white"/>
</svg>
