<svg width="24" height="24" viewBox="0 0 24 24" fill="none" xmlns="http://www.w3.org/2000/svg">
<rect x="2.75" y="2.75" width="18.5" height="18.5" rx="5.25" stroke="white" stroke-width="1.5"/>
<path d="M17.0376 6.0012C16.877 6.01288 16.7194 6.05054 16.571 6.11272H16.569C16.4264 6.16923 15.7488 6.4543 14.7185 6.8864L11.0267 8.44126C8.37759 9.55651 5.77349 10.6548 5.77349 10.6548L5.8045 10.6428C5.8045 10.6428 5.62496 10.7018 5.43742 10.8303C5.32155 10.904 5.22185 11.0005 5.14435 11.1139C5.05233 11.2489 4.97831 11.4554 5.00582 11.669C5.05083 12.0301 5.28488 12.2466 5.45292 12.3662C5.62296 12.4872 5.785 12.5437 5.785 12.5437H5.789L8.23106 13.3664C8.34058 13.718 8.97523 15.8044 9.12776 16.2851C9.21778 16.5721 9.3053 16.7517 9.41483 16.8887C9.46784 16.9587 9.52986 17.0172 9.60437 17.0642C9.64311 17.0868 9.68442 17.1046 9.7274 17.1173L9.7024 17.1112C9.7099 17.1132 9.7159 17.1193 9.7214 17.1213C9.7414 17.1268 9.75491 17.1288 9.78041 17.1328C10.167 17.2498 10.4776 17.0097 10.4776 17.0097L10.4951 16.9957L11.9369 15.6829L14.3535 17.5368L14.4085 17.5604C14.9121 17.7814 15.4222 17.6584 15.6918 17.4413C15.9633 17.2228 16.0689 16.9432 16.0689 16.9432L16.0864 16.8982L17.9538 7.3315C18.0068 7.09545 18.0203 6.8744 17.9618 6.65985C17.9014 6.44271 17.7621 6.25596 17.5712 6.13623C17.4109 6.03876 17.225 5.99172 17.0376 6.0012V6.0012ZM16.9871 7.02643C16.9851 7.05794 16.9911 7.05444 16.9771 7.11495V7.12045L15.1271 16.5876C15.1191 16.6011 15.1056 16.6306 15.0686 16.6601C15.0296 16.6912 14.9986 16.7107 14.8361 16.6461L11.8804 14.3801L10.095 16.0075L10.4701 13.6119L15.2992 9.11091C15.4982 8.92587 15.4317 8.88686 15.4317 8.88686C15.4457 8.65981 15.1311 8.82034 15.1311 8.82034L9.04174 12.5927L9.03974 12.5827L6.12107 11.6V11.598L6.11357 11.5965C6.11869 11.5948 6.1237 11.5928 6.12857 11.5905L6.14458 11.5825L6.16008 11.577C6.16008 11.577 8.76618 10.4787 11.4153 9.36347C12.7416 8.80484 14.0779 8.24221 15.1056 7.80811C16.1334 7.37651 16.893 7.05994 16.9361 7.04293C16.9771 7.02693 16.9576 7.02693 16.9871 7.02693V7.02643Z" fill="white"/>
</svg>
