<svg width="30" height="30" viewBox="0 0 30 30" fill="none" xmlns="http://www.w3.org/2000/svg">
<path opacity="0.8" d="M15 0C12.0333 0 9.13319 0.879734 6.66645 2.52796C4.19972 4.17618 2.27713 6.51885 1.14181 9.25975C0.00649926 12.0006 -0.290551 15.0166 0.288228 17.9264C0.867006 20.8361 2.29562 23.5088 4.3934 25.6066C6.49119 27.7044 9.16394 29.133 12.0737 29.7118C14.9834 30.2906 17.9994 29.9935 20.7403 28.8582C23.4811 27.7229 25.8238 25.8003 27.472 23.3335C29.1203 20.8668 30 17.9667 30 15C29.9956 11.0231 28.4139 7.21032 25.6018 4.39822C22.7897 1.58612 18.9769 0.00436739 15 0V0ZM22.8105 11.4195L13.5285 20.7015C13.2472 20.9827 12.8658 21.1407 12.468 21.1407C12.0703 21.1407 11.6888 20.9827 11.4075 20.7015L7.18951 16.482C6.91627 16.1991 6.76508 15.8202 6.76849 15.4269C6.77191 15.0336 6.92967 14.6574 7.20778 14.3793C7.48589 14.1012 7.86211 13.9434 8.2554 13.94C8.6487 13.9366 9.0276 14.0878 9.3105 14.361L12.468 17.52L20.6895 9.3C20.9735 9.03331 21.3501 8.88758 21.7396 8.89363C22.1291 8.89968 22.501 9.05704 22.7766 9.33241C23.0522 9.60779 23.2098 9.97957 23.2161 10.3691C23.2225 10.7586 23.077 11.1353 22.8105 11.4195V11.4195Z" fill="#FB8960"/>
</svg>
